<?xml version="1.0" standalone="no"?>
<!DOCTYPE svg PUBLIC "-//W3C//DTD SVG 20010904//EN"
 "http://www.w3.org/TR/2001/REC-SVG-20010904/DTD/svg10.dtd">
<svg version="1.0" xmlns="http://www.w3.org/2000/svg"
 width="260.000000pt" height="260.000000pt" viewBox="0 0 260.000000 260.000000"
 preserveAspectRatio="xMidYMid meet">
<metadata>
Created by potrace 1.11, written by Peter Selinger 2001-2013
</metadata>
<g transform="translate(0.000000,260.000000) scale(0.100000,-0.100000)"
fill="#000000" stroke="none">
<path d="M1220 2590 c-14 -4 -39 -14 -55 -21 -60 -27 -895 -513 -928 -540 -18
-15 -49 -56 -68 -91 l-34 -63 0 -570 0 -570 33 -67 c20 -40 47 -79 70 -96 34
-27 188 -122 198 -122 2 0 4 296 4 658 0 626 1 660 18 675 10 10 31 17 46 17
18 0 169 -79 412 -216 l383 -216 378 213 c250 141 390 215 414 217 67 7 63 41
69 -690 l5 -658 85 51 c105 62 153 108 188 179 l27 55 0 565 0 565 -27 55
c-15 30 -46 74 -70 97 -53 50 -910 547 -982 568 -53 16 -126 18 -166 5z"/>
<path d="M902 410 l3 -232 136 -79 c227 -132 286 -132 514 -1 l140 81 3 231 2
231 -22 -12 c-13 -7 -103 -57 -201 -111 l-178 -98 -157 86 c-86 48 -176 98
-200 111 l-42 25 2 -232z"/>
</g>
</svg>
